<svg viewBox="0 0 250 250" width="512" height="512" xmlns="http://www.w3.org/2000/svg">
  <defs>
    <radialGradient id="wb3" cx="38%" cy="32%" r="75%">
      <stop offset="0%" stop-color="#d7ef7a"/>
      <stop offset="55%" stop-color="#8fc23e"/>
      <stop offset="100%" stop-color="#4d8a1f"/>
    </radialGradient>
    <linearGradient id="lf3" x1="0" y1="0" x2="1" y2="1">
      <stop offset="0%" stop-color="#5aa628"/>
      <stop offset="100%" stop-color="#2f5f16"/>
    </linearGradient>
    <linearGradient id="glass1" x1="0" y1="0" x2="1" y2="1">
      <stop offset="0%" stop-color="rgba(255,255,255,0.68)"/>
      <stop offset="100%" stop-color="rgba(180,225,140,0.16)"/>
    </linearGradient>
  </defs>
  <rect x="18" y="18" width="214" height="214" rx="58" fill="url(#glass1)" stroke="rgba(255,255,255,0.85)" stroke-width="3"/>
  <path d="M40,70 L95,30 L120,30 L55,95 Z" fill="rgba(255,255,255,0.4)"/>
  <circle cx="125" cy="130" r="80" fill="url(#wb3)"/>
  <ellipse cx="148" cy="92" rx="24" ry="9" fill="#eaf8b0" opacity=".3" transform="rotate(-30 148 92)"/>
  <g transform="translate(172,64) rotate(18) scale(.92)">
    <path d="M0,-38 C21,-38 33,-10 33,9 C33,29 19,44 0,44 C-19,44 -33,29 -33,9 C-33,-10 -21,-38 0,-38 Z" fill="url(#lf3)"/>
    <path d="M0,-32 L0,38" stroke="#1f4a10" stroke-width="2" opacity=".5"/>
  </g>
</svg>
